PathFileType	4	(X/Y/Z)	C:/Users/beibeiliu/ov580/test_trc\sequence.38_training_dense_left.trc
DataRate	CameraRate	NumFrames	NumMarkers	Units	OrigDataRate	OrigDataStartFrame	OrigNumFrames
120	120	14	19	mm	120	27	79
Frame#	Time	ThumbCMC			ThumbMCP			ThumbIP			ThumbTip			IndexMCP			IndexPIP			IndexTip			MiddleMCP			MiddlePIP			MiddleTip			RingMCP			RingPIP			RingTip			PinkyMCP			PinkyPIP			PinkyTip			BackHand1			BackHand2			BackHand3	
		X0	Y0	Z0	X1	Y1	Z1	X2	Y2	Z2	X3	Y3	Z3	X4	Y4	Z4	X5	Y5	Z5	X6	Y6	Z6	X7	Y7	Z7	X8	Y8	Z8	X9	Y9	Z9	X10	Y10	Z10	X11	Y11	Z11	X12	Y12	Z12	X13	Y13	Z13	X14	Y14	Z14	X15	Y15	Z15	X16	Y16	Z16	X17	Y17	Z17	X18	Y18	Z18	
26	0.216667	-186.444	60.3818	136.363	-164.646	71.0042	114.716	-155.187	62.1506	89.3809	-152.532	38.631	78.6126	-179.667	64.4477	63.6347	-169.352	61.3657	40.0552	-160.037	61.0681	18.6568	-178.902	41.1418	49.7561	-168.009	47.8259	29.8657	-158.204	48.9358	4.50763	-177.609	27.663	52.2035	-167.343	29.7776	29.9114	-157.904	34.0898	5.51079	-175.576	5.3752	64.4273	-165.852	13.7041	44.0587	-164.624	14.8328	22.4343	-202.008	11.3214	94.6942	-217.598	5.5569	123.597	-210.074	41.8013	114.266	
27	0.225	-175.413	56.8471	137.815	-150.465	69.0186	118.522	-142.873	60.592	86.6073	-144.698	35.7008	73.1159	-169.533	63.3819	65.9753	-158.227	68.7916	40.1142	-151.039	62.4187	18.6307	-170.957	49.7081	50.6883	-161.671	48.5745	27.9898	-150.629	54.994	0.643652	-173.186	27.8055	53.0935	-161.9	32.0417	28.4953	-155.077	34.7207	8.02951	-173.726	7.69288	62.5922	-164.066	15.1552	47.1896	-160.255	19.8211	21.9643	-197.403	20.3631	98.14	-211.155	11.733	123.871	-200.602	45.8713	113.203	
28	0.233333	-162.002	57.438	138.033	-140.723	57.1974	118.915	-136.121	51.4056	88.9044	-145.063	33.1497	72.9303	-160.48	68.3133	64.9891	-152.008	68.4321	42.9651	-145.648	66.6461	14.0927	-168.523	55.9373	55.5646	-159.359	57.7398	27.5676	-152.776	56.9143	4.48772	-173.986	37.7545	50.7607	-165.73	42.4319	28.4328	-159.242	45.3601	7.17656	-180.625	18.7646	61.8249	-171.874	21.7963	39.6198	-169.684	28.9998	17.5874	-200.848	28.8602	93.4304	-213.447	26.1276	125.575	-195.378	54.9034	118.142	
29	0.241667	-154.998	39.542	137.617	-137.282	36.0145	111.478	-131.417	34.2781	82.1428	-151.354	22.4613	62.5592	-155.405	60.9544	65.6115	-146.584	63.4811	40.6886	-141.187	63.973	13.3018	-171.084	55.2372	50.7747	-162.493	56.943	26.4611	-154.859	60.5973	-2.47262	-181.278	43.0821	50.1195	-175.021	45.6872	26.6611	-171.635	48.7422	2.64032	-192.702	27.1616	58.9832	-186.38	31.1258	35.5351	-180.86	38.803	14.5202	-202.295	41.1235	99.5449	-211.993	37.7311	124.706	-184.822	57.2768	120.836	
30	0.25	-151.529	23.3354	131.716	-131.448	14.8845	107.413	-135.609	10.3494	82.5546	-157.342	6.95891	63.1469	-141.037	45.8406	60.7413	-140.128	43.2968	39.776	-137.388	42.9976	9.42193	-163.921	43.1361	52.5477	-157.565	43.5719	24.8622	-152.535	43.7622	-0.896211	-178.322	37.814	48.1806	-174.862	37.2998	23.7395	-164.349	39.9883	1.27587	-194.602	25.5358	56.0711	-189.561	25.4186	36.8755	-181.959	34.4853	11.4468	-199.321	41.7079	95.4958	-206.906	40.0974	126.138	-173.801	48.9668	118.723	
31	0.258333	-138.053	12.2157	140.331	-120.161	-4.54813	115.333	-126.054	-8.12307	90.0022	-144.731	-9.85612	67.376	-127.242	24.1359	64.3066	-120.243	19.2257	43.9598	-118.479	15.9903	17.0663	-143.456	26.2596	52.8993	-138.368	21.1117	29.0261	-131.864	20.001	2.08888	-165.719	22.163	54.2607	-159.13	18.9364	33.1355	-151.307	17.6748	6.03657	-184.772	16.0474	63.1616	-177.951	13.5176	39.6895	-171.36	16.4533	21.0103	-180.432	37.4208	100.847	-187.092	39.9433	131.276	-150.393	39.2584	122.553	
32	0.266667	-123.508	6.885	149.251	-109.811	-14.4704	130.513	-111.74	-25.4525	102.848	-133.112	-25.109	83.9517	-108.729	4.45277	78.9354	-105.922	-6.93691	54.0978	-105.619	-14.1347	29.5496	-129.168	5.81624	64.5702	-123.505	-3.36991	41.1073	-116.074	-12.7728	15.5496	-145.792	5.22429	63.679	-143.79	-2.93299	42.9251	-136.743	-10.9941	18.8162	-168.87	2.46344	70.0462	-158.649	-5.14346	52.0346	-152.593	-7.01934	27.956	-162.801	29.8448	104.308	-169.082	38.8132	134.579	-139.023	32.3597	127.146	
33	0.275	-110.013	11.0775	160.809	-97.3121	-15.064	144.183	-100.199	-31.3013	116.722	-117.022	-35.5562	101.258	-99.0468	-10.4058	89.7576	-94.0376	-25.8091	70.0448	-90.6884	-39.4113	48.6769	-112.066	-12.7902	75.1161	-108.403	-26.7052	57.2537	-101.595	-40.6433	36.5005	-130.183	-13.7772	73.8014	-127.993	-26.3306	57.5949	-120.246	-39.9541	34.4947	-152.411	-13.3316	77.9549	-143.639	-25.485	65.6302	-140.303	-29.251	43.8419	-145.975	22.5497	109.208	-155.196	37.3638	130.934	-124.391	31.3394	128.818	
34	0.283333	-104.454	23.1652	165.431	-85.4931	-3.80416	156.835	-85.3515	-21.933	134.479	-101.613	-32.687	114.63	-82.7486	-8.05784	102.105	-75.6606	-29.9191	82.9919	-73.0422	-41.9447	67.7283	-95.5841	-16.7334	85.9551	-89.788	-35.5449	70.8421	-79.5378	-53.7584	52.0642	-116.745	-19.5478	84.9653	-105.373	-35.9536	71.2757	-97.8008	-52.6426	52.668	-138.998	-19.5649	92.8136	-125.159	-34.9562	77.9889	-115.611	-43.2842	59.987	-136.496	20.2607	112.631	-151.222	39.5206	133.138	-118.157	34.7595	130.5	
35	0.291667	-105.925	42.3699	164.053	-81.4473	20.4548	151.699	-77.0265	2.09373	133.76	-89.5786	-15.6194	117.142	-74.5414	14.3045	99.2553	-58.5499	-4.38297	84.012	-53.9434	-19.3582	70.6062	-88.7467	-2.30756	84.7193	-72.5177	-17.3235	73.1261	-57.9097	-33.029	56.7501	-104.556	-10.7649	86.0533	-88.5811	-25.1429	72.6721	-75.227	-38.788	60.0125	-120.682	-17.7247	91.4211	-105.911	-29.314	81.6716	-97.6762	-38.2241	66.3642	-136.999	22.023	107.79	-156.377	38.3555	126.803	-123.678	45.5305	128.85	
36	0.3	-121.706	62.555	149.859	-91.877	51.3247	138.651	-78.9703	34.5915	122.824	-79.9089	9.27644	107.007	-85.4518	36.9283	87.1092	-68.1241	27.2875	75.002	-52.5908	12.5779	60.5362	-90.9158	20.4149	77.7742	-71.145	12.194	65.9871	-52.8948	-3.42018	50.1586	-100.965	4.26454	81.7667	-82.2812	-3.74867	70.1863	-57.9227	-12.83	52.9303	-108.591	-7.65604	90.1291	-91.5598	-12.9383	81.0706	-78.1709	-21.6963	62.238	-145.235	19.2432	104.428	-165.25	29.9043	119.799	-140.613	50.7997	117.039	
37	0.308333	-145.126	67.9689	132.988	-114.915	72.4614	120.359	-95.7923	61.5984	108.066	-85.2902	35.787	98.1076	-100.614	51.7125	70.917	-80.9313	50.2016	58.5336	-60.6789	45.6254	45.9238	-100.51	31.526	70.1197	-77.7724	30.4176	55.7823	-55.2886	24.9134	41.0946	-99.7517	13.8125	76.3851	-77.3334	16.3985	61.1681	-55.3297	10.3121	44.9379	-104.67	-0.58334	90.6592	-84.63	0.388047	78.684	-72.73	1.96132	61.407	-147.009	16.4919	102.787	-168.539	11.2337	118.859	-156.742	47.2059	105.405	
38	0.316667	-164.435	57.6078	125.598	-139.525	77.0452	110.818	-115.684	70.54	94.6354	-100.449	48.8836	94.1261	-122.184	53.1848	65.087	-100.763	59.9549	48.0639	-79.1685	55.4854	35.6921	-112.157	37.7806	62.383	-88.7571	39.3386	47.4759	-64.4671	40.4429	29.5397	-103.013	22.5609	70.7456	-84.3467	25.5812	56.6793	-64.8913	28.1738	40.3841	-99.6949	8.96492	87.393	-83.1353	11.2033	75.4425	-68.6071	12.1116	53.3022	-143.37	4.95739	103.499	-165.208	1.9405	119.724	-168.567	31.6026	101.905	
39	0.325	-178.826	39.3086	121.794	-162.946	59.8122	105.362	-137.066	60.0812	84.6111	-113.029	41.5558	84.2367	-137.012	39.3507	55.2036	-124.219	46.032	41.0677	-102.062	50.0921	22.9503	-121.21	23.9996	55.6066	-103.733	32.5869	38.3934	-85.8371	36.659	22.4734	-113.509	16.7162	66.8066	-94.8885	22.743	50.0108	-76.84	27.146	30.0907	-103.036	6.83173	82.482	-89.9609	13.7442	68.5905	-77.1387	17.0113	47.7219	-146.953	-6.28397	101.835	-160.84	-15.231	124.229	-177.061	11.1815	104.065	
